<?xml version="1.0" encoding="UTF-8" standalone="no"?>
<svg
   xmlns:dc="http://purl.org/dc/elements/1.1/"
   xmlns:cc="http://creativecommons.org/ns#"
   xmlns:rdf="http://www.w3.org/1999/02/22-rdf-syntax-ns#"
   xmlns:svg="http://www.w3.org/2000/svg"
   xmlns="http://www.w3.org/2000/svg"
   xmlns:sodipodi="http://sodipodi.sourceforge.net/DTD/sodipodi-0.dtd"
   xmlns:inkscape="http://www.inkscape.org/namespaces/inkscape"
   width="300"
   height="300"
   viewBox="0 0 79.375 79.375"
   version="1.1"
   id="svg8"
   inkscape:version="1.0.1 (3bc2e813f5, 2020-09-07)"
   sodipodi:docname="logo-path.svg">
  <defs
     id="defs2" />
  <sodipodi:namedview
     id="base"
     pagecolor="#ffffff"
     bordercolor="#666666"
     borderopacity="1.0"
     inkscape:pageopacity="0.0"
     inkscape:pageshadow="2"
     inkscape:zoom="1"
     inkscape:cx="400"
     inkscape:cy="40"
     inkscape:document-units="mm"
     inkscape:current-layer="layer1"
     inkscape:document-rotation="0"
     showgrid="true"
     units="px"
     inkscape:window-width="2560"
     inkscape:window-height="1376"
     inkscape:window-x="0"
     inkscape:window-y="27"
     inkscape:window-maximized="1">
    <inkscape:grid
       type="xygrid"
       id="grid27" />
  </sodipodi:namedview>
  <metadata
     id="metadata5">
    <rdf:RDF>
      <cc:Work
         rdf:about="">
        <dc:format>image/svg+xml</dc:format>
        <dc:type
           rdf:resource="http://purl.org/dc/dcmitype/StillImage" />
        <dc:title></dc:title>
      </cc:Work>
    </rdf:RDF>
  </metadata>
  <g
     inkscape:label="Ebene 1"
     inkscape:groupmode="layer"
     id="layer1">
    <g
       aria-label="C
"
       id="text19"
       style="font-size:63.5px;font-family:'Olde English';-inkscape-font-specification:'Olde English';stroke-width:0.264583;fill:#ffffff">
      <path
         d="M 48.095491,53.390197 47.248825,52.374198 Q 43.128384,55.817307 38.161276,57.736416 33.08128,59.71197 28.84795,59.71197 H 27.775507 V 19.523557 q 6.321773,2.991553 11.796879,3.951108 l 7.224884,-6.886217 h -0.338667 q -8.240882,0 -16.594653,-4.23333 L 14.285295,25.619552 v 17.102654 q 0,3.499553 -0.338667,4.571996 -0.620888,2.201332 -2.709331,3.612442 -4.3462186,-6.491106 -4.3462186,-13.490212 0,-6.039551 2.4271092,-10.38577 2.4835534,-4.459107 8.5795494,-9.539103 L 17.276848,16.588448 Q 9.3181876,20.765334 4.9155244,27.425773 0.5128611,34.142657 0.5128611,42.101317 q 0,10.89377 6.9426613,18.231542 6.9991056,7.281327 17.3284306,7.281327 14.223989,0 23.311538,-14.223989 z M 22.074622,22.176444 26.082175,18.620447 v 40.92219 Q 17.784848,58.695971 12.309741,52.430643 l 3.217331,-2.709332 q 1.975554,-1.636887 3.217331,-2.991553 1.298221,-1.41111 1.919109,-2.483553 0.451555,-0.790222 0.733777,-1.580444 0.282222,-0.790221 0.395111,-1.580443 0.112889,-0.790222 0.169333,-2.427109 0.112889,-1.636888 0.112889,-4.176886 z"
         style="font-style:normal;font-variant:normal;font-weight:normal;font-stretch:normal;font-size:56.4444px;font-family:'Old English Five';-inkscape-font-specification:'Old English Five';stroke-width:0.264583;fill:#ffffff"
         id="path147" />
    </g>
    <g
       aria-label="M"
       id="text23"
       style="font-size:28.2222px;font-family:'Olde English';-inkscape-font-specification:'Olde English';stroke-width:0.264583;fill:#ffffff">
      <path
         d="m 73.993392,36.324149 4.430886,-3.499553 -0.677333,-0.733777 -1.15711,0.931333 Q 75.743169,32.570597 75.573836,32.119041 75.404502,31.695708 75.404502,29.974154 V 17.048386 q 0,-2.681109 0.310445,-3.781775 0.338666,-1.044221 1.608665,-2.455331 l -0.733777,-0.536222 q -0.620889,0.564444 -1.044222,0.959555 -0.39511,0.395111 -0.620888,0.620888 L 70.832506,8.5817262 64.059178,13.464167 Q 63.918067,11.403946 63.410067,10.55728 62.845623,9.6259476 61.208736,8.694615 l -0.536222,0.3104442 q -2.398887,1.3546658 -3.838219,2.1731098 -1.41111,0.790221 -1.862666,1.072443 -0.818443,0.479778 -1.523998,1.015999 -0.677333,0.508 -1.298222,1.044222 -1.608665,1.439332 -2.342442,3.301997 -0.705555,1.862666 -0.733778,4.882441 -1.015999,0.112889 -1.777998,0.366889 -0.733777,0.225777 -1.326444,0.620888 -0.564444,0.366889 -1.015999,0.931333 -0.423333,0.536221 -0.761999,1.298221 l 0.677333,0.479777 q 0.959554,-1.185332 2.088442,-1.185332 1.523999,0 2.709332,1.693332 1.213554,1.66511 1.213554,3.951108 0,1.947332 -0.874888,2.935109 -0.874888,0.959555 -2.82222,1.185332 -2.060221,0.225778 -2.906887,1.15711 -0.818443,0.959555 -0.818443,3.047998 v 0.508 h 0.818443 q 0.282222,-1.721555 2.031999,-1.721555 0.592666,0 1.072443,0.112889 1.777999,0.08467 2.116665,0.08467 5.700885,0 5.700885,-6.745106 v -7.619994 h 5.023552 v 5.475107 q 0,1.806221 -0.536222,2.342442 -0.254,0.225778 -0.451555,0.366889 -0.169334,0.112889 -0.282222,0.197555 v 0.479778 q 1.185332,0.874888 2.229553,1.834443 1.044222,0.959555 1.947332,2.031998 l 6.462884,-5.672662 -0.592666,-0.649111 -1.354666,1.213555 v -7.56355 l 2.201332,-2.878664 h -2.201332 v -8.918216 l 0.903111,-0.64911 2.737553,2.116665 v 17.046209 q 0,2.709331 0.451555,3.72533 0.451556,1.016 2.257776,2.229554 z M 64.172067,23.595937 h 2.652886 v 8.184438 q -0.536221,0.536222 -1.128888,0.536222 -0.931332,0 -1.241776,-0.818444 -0.282222,-0.818444 -0.282222,-3.33022 z m 2.652886,-2.82222 h -2.652886 v -6.378218 l 2.652886,-1.919109 z m -6.603994,-4.684885 v 4.684885 h -3.33022 l -1.693332,2.257776 v -5.108218 q 0,-3.07622 0.536222,-4.176886 0.564444,-1.15711 2.681109,-2.427109 1.241777,0.818443 1.523999,1.552221 0.282222,0.677332 0.282222,3.217331 z M 51.13341,34.828373 q 0.02822,0 -0.254,0 -0.282222,-0.02822 -0.846666,-0.05644 1.721554,-0.677333 2.285998,-1.919109 0.536222,-1.185333 0.536222,-4.515553 v -7.732882 q 0,-3.697109 0.338667,-4.854219 0.338666,-1.128888 1.777998,-2.285998 -0.620888,1.41111 -0.620888,4.48733 v 11.853324 q 0,3.047998 -0.649111,4.035775 -0.64911,0.987777 -2.56822,0.987777 z"
         style="font-style:normal;font-variant:normal;font-weight:normal;font-stretch:normal;font-size:28.2222px;font-family:'Old English Five';-inkscape-font-specification:'Old English Five';stroke-width:0.264583;fill:#ffffff"
         id="path150" />
    </g>
    <g
       aria-label="L"
       id="text31"
       style="font-size:28.2222px;font-family:'Olde English';-inkscape-font-specification:'Olde English';stroke-width:0.264583;fill:#ffffff">
      <path
         d="m 70.198427,70.172844 4.459108,-4.148664 -0.677333,-0.733777 -1.777999,1.66511 q -3.160886,-2.56822 -7.111994,-2.56822 -1.975554,0 -4.938885,0.90311 l 0.677333,-0.592666 q 3.499553,-2.963331 4.741329,-4.99533 1.213555,-2.003776 1.213555,-4.995329 0,-1.128888 -0.423333,-5.192885 -0.169333,-1.693332 -0.169333,-1.975554 0,-1.862665 0.987777,-2.765776 0.987777,-0.90311 3.273775,-1.15711 L 70.029094,42.68442 h -0.451555 q -3.301998,0 -5.164663,1.749777 -1.834443,1.749776 -1.834443,4.910663 0,0.395111 0,0.761999 0.02822,0.338667 0.05645,0.705555 l 0.197555,2.116665 q 0.141111,1.439332 0.197555,2.229554 0.08467,0.790222 0.08467,1.015999 0,6.011329 -5.531551,9.764882 1.834443,-2.539998 2.624664,-4.600219 0.762,-1.975554 0.762,-4.402663 0,-1.100666 -0.08467,-2.314221 -0.08467,-1.241777 -0.225777,-2.596442 -0.254,-2.398887 -0.254,-2.906887 0,-1.890887 0.705555,-3.104442 0.761999,-1.269999 2.709331,-2.737553 L 63.453321,42.68442 q -2.229553,1.128888 -3.555997,1.128888 -0.790222,0 -2.427109,-0.592666 -2.003776,-0.64911 -2.906887,-0.64911 -1.777998,0 -3.07622,1.298221 -1.326443,1.269999 -1.326443,2.991553 0,0.592666 0.338666,1.608666 l 0.705555,-0.310445 q -0.08467,-0.705555 -0.08467,-0.761999 0,-0.846666 0.479777,-1.354666 0.508,-0.536221 1.354666,-0.536221 0.705555,0 1.721554,0.366888 1.269999,0.451555 2.116665,0.451555 1.269999,0 3.358442,-0.564444 -1.862665,1.777999 -2.539998,3.245553 -0.677333,1.495777 -0.677333,3.83822 0,0.141111 0,0.282222 0,0.141111 0.02822,0.310444 0.08467,0.479777 0.08467,0.733777 -0.762,-0.197555 -1.382888,-0.197555 -1.834443,0 -3.358442,1.834443 l 0.508,0.423333 q 0.761999,-0.592667 1.749776,-0.592667 2.850442,0 2.906887,3.612442 -1.072444,-0.677333 -1.947332,-0.677333 -1.100666,0 -2.201332,1.241777 l 0.366889,0.423333 q 0.592666,-0.225777 1.072444,-0.225777 0.507999,0 0.959554,0.225777 0.451556,0.197556 0.790222,0.592666 0.338666,0.366889 0.536222,0.874889 0.197555,0.479777 0.197555,1.044221 0,3.273775 -5.418662,6.660439 l 0.479777,0.762 q 5.277552,-2.906887 9.708437,-2.906887 4.346219,0 8.184438,2.906887 z"
         style="font-style:normal;font-variant:normal;font-weight:normal;font-stretch:normal;font-size:28.2222px;font-family:'Old English Five';-inkscape-font-specification:'Old English Five';stroke-width:0.264583;fill:#ffffff"
         id="path153" />
    </g>
  </g>
</svg>
